<?xml version="1.0" encoding="UTF-8" standalone="no"?>
<svg
   width="77.067619mm"
   height="23.074173mm"
   viewBox="0 0 77.067619 23.074174"
   version="1.1"
   id="svg8"
   inkscape:version="1.2.2 (b0a8486541, 2022-12-01)"
   sodipodi:docname="business-card.svg"
   xml:space="preserve"
   xmlns:inkscape="http://www.inkscape.org/namespaces/inkscape"
   xmlns:sodipodi="http://sodipodi.sourceforge.net/DTD/sodipodi-0.dtd"
   xmlns="http://www.w3.org/2000/svg"
   xmlns:svg="http://www.w3.org/2000/svg"
   xmlns:rdf="http://www.w3.org/1999/02/22-rdf-syntax-ns#"
   xmlns:cc="http://creativecommons.org/ns#"
   xmlns:dc="http://purl.org/dc/elements/1.1/"><defs
     id="defs2"><linearGradient
       id="linearGradient3286"
       inkscape:swatch="solid"><stop
         id="stop3284"
         offset="0"
         style="stop-color:#444d61;stop-opacity:1;" /></linearGradient><linearGradient
       id="linearGradient3488"
       inkscape:swatch="gradient"><stop
         style="stop-color:#ffffff;stop-opacity:1;"
         offset="0"
         id="stop3484" /><stop
         style="stop-color:#ffffff;stop-opacity:0;"
         offset="1"
         id="stop3486" /></linearGradient><linearGradient
       id="linearGradient2988"
       inkscape:swatch="solid"><stop
         id="stop2986"
         offset="0"
         style="stop-color:#ffffff;stop-opacity:1;" /></linearGradient></defs><sodipodi:namedview
     id="base"
     pagecolor="#ffffff"
     bordercolor="#666666"
     borderopacity="1.0"
     inkscape:pageopacity="0.0"
     inkscape:pageshadow="2"
     inkscape:zoom="0.25226418"
     inkscape:cx="-772.99918"
     inkscape:cy="687.77106"
     inkscape:document-units="mm"
     inkscape:current-layer="layer1"
     showgrid="false"
     inkscape:window-width="1300"
     inkscape:window-height="697"
     inkscape:window-x="66"
     inkscape:window-y="32"
     inkscape:window-maximized="1"
     inkscape:snap-text-baseline="true"
     showguides="false"
     fit-margin-top="0"
     fit-margin-left="0"
     fit-margin-right="0"
     fit-margin-bottom="0"
     inkscape:document-rotation="0"
     inkscape:pagecheckerboard="0"
     inkscape:showpageshadow="2"
     inkscape:deskcolor="#d1d1d1"><inkscape:grid
       type="xygrid"
       id="grid925"
       originx="-2969.7097"
       originy="1163.2782"
       spacingy="1"
       spacingx="1"
       units="mm"
       visible="false" /><inkscape:page
       x="-1.5465233e-15"
       y="0"
       width="77.067612"
       height="23.074175"
       id="page2"
       margin="0"
       bleed="0" /></sodipodi:namedview><metadata
     id="metadata5"><rdf:RDF><cc:Work
         rdf:about=""><dc:format>image/svg+xml</dc:format><dc:type
           rdf:resource="http://purl.org/dc/dcmitype/StillImage" /></cc:Work></rdf:RDF></metadata><g
     inkscape:label="Layer 1"
     inkscape:groupmode="layer"
     id="layer1"
     transform="translate(-499.21623,576.72069)">










































<g
   aria-label="tayzarlin"
   id="g18"
   style="font-size:20.4125px;font-family:'Southam Demo';-inkscape-font-specification:'Southam Demo';fill:#000000;stroke-width:21.8462"
   transform="matrix(1.8730114,0,0,1.8730114,-1086.6073,655.18706)"
   inkscape:export-filename="Tay Zar Lin/g18.svg"
   inkscape:export-xdpi="79.099373"
   inkscape:export-ydpi="79.099373"><path
     d="m 847.54778,-645.41567 q -0.0997,0 -0.2093,-0.0698 -0.11961,-0.0698 -0.15948,-0.15948 -0.0399,-0.0897 -0.0399,-0.27907 0,-0.18938 0.1196,-0.80733 0.1196,-0.60799 0.24918,-1.06648 l 0.0797,-0.25914 q 0.38872,-1.49506 0.95684,-3.10972 0.16944,-0.45848 0.16944,-0.54818 0.0997,-0.44852 0.65782,-1.7243 l 0.46845,-1.14621 q 0.23921,-0.58806 0.23921,-0.64786 0,-0.0199 -0.0399,-0.0199 -0.0598,0 -0.27907,0.0498 -0.53822,0.10964 -1.22595,0.29901 -0.68772,0.18938 -0.86713,0.32892 -0.0997,0.0698 -0.0997,0.1794 0,0.10964 -0.0997,0.21928 -0.15947,0.1794 -0.37875,0.1794 -0.13954,0 -0.27908,-0.10963 -0.13954,-0.10964 -0.13954,-0.34885 0,-0.45848 0.7575,-0.69769 0.68773,-0.23921 2.22265,-0.54819 0.66779,-0.13954 0.72759,-0.16944 0.19934,-0.39868 0.31895,-0.66779 0.43855,-0.92694 0.62792,-1.08641 0.10964,-0.0897 0.24918,-0.0897 0.36878,0 0.36878,0.44851 l -0.0199,0.20931 q -0.0997,0.62793 -0.56813,0.66779 -0.10963,0.01 -0.16944,0.0498 -0.0498,0.0399 -0.10963,0.15947 -0.0399,0.0797 -0.0598,0.12957 -0.0199,0.0399 -0.0199,0.0598 0,0.01 0.0299,0.01 0.14951,0 0.70766,-0.0897 l 0.7575,-0.10964 q 0.38871,-0.0498 1.85387,-0.12957 0.48838,-0.0299 0.75749,-0.0299 0.0797,0 0.13954,0.01 0.0698,0.01 0.1196,0.0399 0.10964,0.0598 0.17941,0.17941 0.0797,0.10964 0.0797,0.20931 0,0.22924 -0.15947,0.35881 -0.14951,0.12957 -0.38872,0.12957 -0.13954,0 -0.25914,-0.0498 -0.66779,-0.14951 -1.47512,-0.14951 -0.67776,0 -1.73427,0.11961 -0.88707,0.10964 -0.94687,0.16944 -0.0997,0.1196 -0.49835,1.0565 l -0.22924,0.54819 q -0.13954,0.29901 -0.25915,0.66779 -0.21927,0.59803 -0.35881,0.9369 -0.58805,1.59473 -0.9668,3.02002 -0.45849,1.6944 -0.45849,2.52166 0,0.19934 0.0698,0.37875 0.0698,0.1794 0.0698,0.31894 0,0.10964 -0.0797,0.22924 -0.0897,0.12958 -0.19934,0.17941 -0.11961,0.0498 -0.19935,0.0498 z"
     id="path10"
     style="fill:#000000" /><path
     d="m 852.83032,-650.43906 q -0.18938,0 -0.28905,-0.0498 -0.41861,-0.21927 -0.41861,-0.8472 0,-0.45848 0.19934,-1.18607 v -0.01 q 0,-0.01 -0.01,-0.01 -0.0199,0 -0.38871,0.32891 -0.8472,0.7575 -1.29572,0.7575 -0.25914,0 -0.37875,-0.26911 -0.0498,-0.13954 -0.0498,-0.29901 0,-0.42858 0.40865,-0.97677 0.75749,-0.86713 1.57479,-0.86713 0.51828,0 0.77743,0.38871 0.0399,0.0598 0.0399,0.17941 0,0.33888 -0.11961,0.48838 -0.1196,0.14951 -0.21927,0.46845 -0.19934,0.64786 -0.19934,1.04654 0,0.26911 0.13953,0.42858 0.0997,0.11961 0.23921,0.11961 0.46845,0 1.68443,-0.95684 0.44852,-0.35881 0.62793,-0.58805 0.1794,-0.23921 0.1794,-0.46845 0,-0.23921 0.11961,-0.32892 0.1196,-0.0897 0.22924,-0.0897 0.18937,0 0.26911,0.18937 0.0399,0.11961 0.0399,0.22925 0,0.32891 -0.19934,0.44851 -0.0897,0.0399 -0.47842,0.37875 -0.61796,0.53822 -1.20601,0.94687 -0.58806,0.39868 -0.89704,0.48839 -0.1794,0.0598 -0.37874,0.0598 z m -2.19275,-1.39539 q 0.21927,0 0.80733,-0.51828 0.50832,-0.44852 0.59802,-0.64786 0.0299,-0.0698 0.0299,-0.19934 0,-0.17941 -0.17941,-0.17941 -0.16944,0 -0.44851,0.17941 -0.56812,0.36878 -0.7874,0.8771 -0.10964,0.24917 -0.10964,0.37874 0,0.10964 0.0897,0.10964 z"
     id="path11"
     style="fill:#000000" /><path
     d="m 854.61442,-645.39574 q -0.0698,0 -0.13954,-0.0299 -0.19934,-0.0897 -0.19934,-0.36878 0,-0.23921 0.1495,-0.61796 0.59803,-1.42528 2.74094,-3.54826 l 0.64786,-0.6379 q 1.27578,-2.60139 1.27578,-2.68113 v -0.01 l -0.0897,0.0498 q -0.73756,0.52825 -2.59143,2.39209 -1.17611,1.17611 -1.31565,1.25585 -0.1495,0.0598 -0.25914,0.0598 -0.29901,0 -0.29901,-0.42858 0,-0.39869 0.38871,-1.40536 0.13954,-0.32891 0.13954,-0.42858 0,-0.0598 -0.0199,-0.12957 -0.0199,-0.0698 -0.0199,-0.15947 0,-0.39869 0.44851,-0.88707 0.34885,-0.36878 0.57809,-0.36878 0.10964,0 0.19934,0.0698 0.14951,0.10964 0.14951,0.30898 0,0.1196 -0.15948,0.47841 -0.26911,0.62793 -0.54818,0.77743 -0.27908,0.10964 -0.62793,1.19605 -0.12957,0.37875 -0.12957,0.50832 0,0.01 0.0199,0.01 0.0598,0 0.36878,-0.27907 0.29901,-0.28905 1.00667,-0.99671 2.61136,-2.58146 3.01004,-2.58146 0.0698,0 0.13954,0.0897 0.0797,0.0897 0.0797,0.15948 0,0.24917 -0.59802,1.48508 -0.40865,0.8173 -0.40865,0.86714 0.0498,0 0.32891,-0.21928 0.34885,-0.24917 0.67776,-0.46845 0.37875,-0.23921 0.58805,-0.38871 0.33888,-0.23921 0.43855,-0.43855 0.0997,-0.19934 0.18938,-0.28905 0.0897,-0.0997 0.25914,-0.0997 0.17941,0 0.28905,0.11961 0.1196,0.10963 0.1196,0.24917 0,0.15948 -0.20931,0.29901 -0.15947,0.10964 -0.26911,0.10964 -0.10964,0 -0.52825,0.24918 -0.9369,0.55815 -2.31236,1.70436 -0.9668,1.74423 -1.61466,2.77084 -1.20601,1.86384 -1.66449,2.18278 -0.11961,0.0698 -0.22924,0.0698 z m 0.10963,-0.49835 0.11961,-0.11961 q 0.16944,-0.13953 0.44852,-0.54818 0.51828,-0.6678 1.24588,-1.82397 0.57808,-0.907 0.57808,-0.98674 l -0.01,-0.01 q -0.0399,0 -0.32892,0.33888 -1.77413,2.03328 -2.05321,3.14959 z"
     id="path12"
     style="fill:#000000" /><path
     d="m 858.36202,-646.18314 q -0.1196,0 -0.22924,-0.0598 -0.1794,-0.10964 -0.1794,-0.52825 0.0199,-0.25914 0.21927,-0.62792 0.53822,-1.07645 2.24258,-2.78081 0.60799,-0.60799 0.80733,-0.82726 0.14951,-0.17941 0.18938,-0.32892 0.0698,-0.24917 0.0698,-0.34884 0,-0.0698 -0.0299,-0.0698 -0.0399,0 -0.16944,0.0598 -0.11961,0.0598 -0.27908,0.14951 -0.15947,0.0897 -0.29901,0.1794 -0.23921,0.15948 -0.39868,0.15948 -0.0997,0 -0.14951,-0.0598 -0.0598,-0.0698 -0.0598,-0.1495 0,-0.19934 0.38871,-0.85717 0.38872,-0.66779 0.42859,-0.8771 0.0498,-0.33888 0.28904,-0.44851 0.0997,-0.0498 0.19934,-0.0498 0.16944,0 0.30898,0.14951 0.14951,0.1495 0.14951,0.32891 0,0.27908 -0.26911,0.41861 -0.0498,0.0299 -0.12958,0.10964 -0.18937,0.18938 -0.30897,0.37875 l -0.0399,0.0997 h 0.0199 q 0.0399,0 0.0997,-0.0199 0.10964,-0.0399 0.21928,-0.0399 0.13954,0 0.29901,0.10963 0.16944,0.0997 0.16944,0.37875 v 0.14951 q 0.36878,-0.33888 0.9668,-0.79737 0.51829,-0.40864 0.65783,-0.57808 0.13953,-0.17941 0.31894,-0.17941 0.0797,0 0.16944,0.0399 0.22924,0.13954 0.22924,0.35881 0,0.0199 -0.0199,0.15947 -0.01,0.12958 -0.27908,0.21928 -0.0598,0.0199 -0.10964,0.0199 -0.0698,0 -0.16944,-0.0498 -0.0897,-0.0498 -0.12957,-0.0498 -0.0997,0 -0.907,0.65783 -0.20931,0.16944 -0.86713,0.73756 l -0.36878,0.82726 q -0.60799,1.35552 -1.31565,2.40206 -1.07644,1.63459 -1.73427,1.63459 z m 0.0299,-0.38871 q 0.0997,0 0.31894,-0.17941 0.89703,-0.71762 1.97347,-2.83064 0.29902,-0.57809 0.29902,-0.66779 0,-0.01 -0.01,-0.01 -0.0797,0 -1.13624,1.17612 -0.6977,0.77742 -1.14621,1.51499 -0.36878,0.61795 -0.36878,0.88706 0,0.10964 0.0698,0.10964 z"
     id="path13"
     style="fill:#000000" /><path
     d="m 865.95691,-650.43906 q -0.18937,0 -0.28904,-0.0498 -0.41862,-0.21927 -0.41862,-0.8472 0,-0.45848 0.19934,-1.18607 v -0.01 q 0,-0.01 -0.01,-0.01 -0.0199,0 -0.38871,0.32891 -0.8472,0.7575 -1.29572,0.7575 -0.25914,0 -0.37874,-0.26911 -0.0498,-0.13954 -0.0498,-0.29901 0,-0.42858 0.40865,-0.97677 0.75749,-0.86713 1.57479,-0.86713 0.51829,0 0.77743,0.38871 0.0399,0.0598 0.0399,0.17941 0,0.33888 -0.11961,0.48838 -0.1196,0.14951 -0.21927,0.46845 -0.19934,0.64786 -0.19934,1.04654 0,0.26911 0.13954,0.42858 0.0997,0.11961 0.23921,0.11961 0.46845,0 1.68443,-0.95684 0.44851,-0.35881 0.62792,-0.58805 0.17941,-0.23921 0.17941,-0.46845 0,-0.23921 0.1196,-0.32892 0.11961,-0.0897 0.22924,-0.0897 0.18938,0 0.26911,0.18937 0.0399,0.11961 0.0399,0.22925 0,0.32891 -0.19934,0.44851 -0.0897,0.0399 -0.47842,0.37875 -0.61795,0.53822 -1.20601,0.94687 -0.58805,0.39868 -0.89703,0.48839 -0.17941,0.0598 -0.37875,0.0598 z m -2.19275,-1.39539 q 0.21928,0 0.80733,-0.51828 0.50832,-0.44852 0.59802,-0.64786 0.0299,-0.0698 0.0299,-0.19934 0,-0.17941 -0.1794,-0.17941 -0.16944,0 -0.44852,0.17941 -0.56812,0.36878 -0.7874,0.8771 -0.10963,0.24917 -0.10963,0.37874 0,0.10964 0.0897,0.10964 z"
     id="path14"
     style="fill:#000000" /><path
     d="m 870.47198,-649.59186 q -0.40865,0 -0.61796,-0.27908 -0.16944,-0.22924 -0.16944,-0.89703 l 0.01,-0.44852 q 0,-0.62793 -0.13954,-0.88707 -0.12957,-0.25914 -0.66779,-0.39868 -0.57809,-0.16944 -0.57809,-0.62792 0,-0.15948 0.0598,-0.34885 0.11961,-0.36878 0.37875,-0.56812 0.18937,-0.13954 0.37875,-0.13954 0.0797,0 0.1495,0.0199 0.39869,0.13954 0.39869,0.62793 0,0.21927 -0.0598,0.39868 -0.0698,0.29901 -0.0698,0.38871 0,0.12958 0.13954,0.19934 0.24918,0.21928 0.30898,0.48839 0.0299,0.15947 0.0498,0.9369 0.0199,0.88707 0.0897,1.00667 0.0797,0.15948 0.31894,0.15948 0.35882,0 0.92694,-0.42859 0.8472,-0.64786 1.45519,-1.40535 0.60799,-0.76746 0.68772,-1.27578 0.0199,-0.14951 0.0997,-0.31895 0.12957,-0.29901 0.34885,-0.29901 0.0698,0 0.14951,0.0399 0.19934,0.12957 0.19934,0.37875 0,0.0299 -0.01,0.18937 -0.01,0.14951 -0.24918,0.34885 -0.10963,0.0698 -0.32891,0.38871 -0.77743,1.16615 -1.8439,2.01334 -0.91697,0.73757 -1.41532,0.73757 z m -1.70437,-3.45857 q 0.0997,0 0.24918,-0.25914 0.0897,-0.19934 0.0897,-0.30898 0,-0.0797 -0.0399,-0.0797 -0.0698,0 -0.15948,0.11961 -0.0897,0.1196 -0.13954,0.24918 -0.0399,0.1196 -0.0399,0.19934 0,0.0797 0.0399,0.0797 z"
     id="path15"
     style="fill:#000000" /><path
     d="m 874.25945,-654.01723 v 0 q 0.13954,-0.32891 0.31895,-0.73756 0.17941,-0.41862 0.32891,-0.7575 0.0299,-0.0698 0.0498,-0.12957 l 0.33888,-0.79736 -0.0897,-0.11961 q -0.28904,-0.37874 0.0598,-0.76746 0.47841,-0.50832 0.83723,-0.13954 0.0897,0.0897 0.0897,0.20931 0.01,0.11961 -0.0797,0.34885 -0.0897,0.22924 -0.29901,0.63789 -0.61795,1.22594 -1.35551,2.86054 -0.73757,1.62463 -1.31565,3.28912 -0.58806,1.65453 -0.7276,2.99012 l -0.0498,0.46845 0.18937,0.19934 q 0.10964,0.1196 0.14951,0.1794 0.0299,0.0698 0.0299,0.17941 0,0.25914 -0.16944,0.36878 -0.16944,0.11961 -0.40865,0.0399 -0.39868,-0.16944 -0.39868,-0.8472 0.0299,-0.8771 0.47841,-2.26252 0.43855,-1.39538 1.01664,-2.82067 0.57809,-1.42529 1.00667,-2.39209 z"
     id="path16"
     style="fill:#000000" /><path
     d="m 875.4555,-653.38931 v 0 q 0.13954,-0.12957 0.32891,-0.0997 0.19934,0.0199 0.30898,0.17941 0.10964,0.18937 0.0399,0.47842 -0.0698,0.27907 -0.26911,0.38871 -0.10964,0.0498 -0.23921,0.27908 -0.11961,0.21927 -0.29901,0.70766 -0.47842,1.28575 -0.17941,1.63459 0.0498,0.0498 0.10964,0.0698 0.0598,0.01 0.21927,0 0.71763,-0.0698 2.67117,-1.53492 1.62463,-1.21598 1.62463,-1.53493 0,-0.31894 0.29901,-0.46845 0.30898,-0.1495 0.58806,0.0498 0.10963,0.10964 0.1196,0.28904 0.0199,0.16944 -0.0598,0.30898 -0.0498,0.0797 -0.13954,0.15947 -0.0897,0.0797 -0.18937,0.14951 -0.0897,0.0598 -0.13954,0.0598 -0.0797,0 -0.32892,0.15947 -0.24917,0.14951 -0.75749,0.53822 -2.71104,2.01335 -3.49843,2.16285 -0.18938,0.0498 -0.29901,0.0498 -0.10964,0 -0.23921,-0.0498 -0.0698,-0.0299 -0.13954,-0.0698 -0.0797,-0.0498 -0.11961,-0.0997 -0.0997,-0.10963 -0.15947,-0.30898 -0.0698,-0.19934 -0.0698,-0.37874 0,-0.19934 0.0698,-0.54819 0.0698,-0.35881 0.17941,-0.70766 0.15947,-0.50832 0.22924,-0.77743 0.0698,-0.26911 0.0698,-0.41861 0,-0.16944 0.0797,-0.36879 0.0797,-0.19934 0.18937,-0.29901 z m 1.24588,-1.0864 v 0 q -0.10964,0.2093 -0.29901,0.26911 -0.18938,0.0598 -0.38872,-0.0498 -0.19934,-0.13954 -0.21927,-0.36878 -0.01,-0.22924 0.12957,-0.41862 0.13954,-0.19934 0.37875,-0.19934 0.27908,0 0.41861,0.25915 0.11961,0.23921 -0.0199,0.50832 z"
     id="path17"
     style="fill:#000000" /><path
     d="m 879.28284,-649.6716 v 0 q -0.13954,-0.12957 0.11961,-0.82726 0.18937,-0.54819 0.30898,-0.88707 0.1196,-0.33888 0.1794,-0.51829 0.0498,-0.1794 0.0598,-0.25914 0.01,-0.0797 -0.01,-0.10964 -0.0897,-0.29901 0.0698,-0.56812 0.15947,-0.27908 0.41861,-0.27908 0.23921,0 0.32892,0.19934 0.0997,0.18938 0.0598,0.43855 -0.0399,0.24918 -0.21928,0.44852 -0.0598,0.0698 -0.10964,0.12957 -0.0399,0.0598 -0.0399,0.0797 0,0.01 -0.0797,0.17941 -0.0698,0.16944 -0.17941,0.40864 -0.0997,0.22925 -0.16944,0.38872 -0.0698,0.15947 -0.0698,0.16944 0.01,0 0.0997,-0.0897 0.0897,-0.0997 0.21927,-0.24918 0.27908,-0.30898 0.70766,-0.72759 0.43855,-0.41862 0.79736,-0.70766 0.30898,-0.24918 0.57809,-0.37875 0.26911,-0.13954 0.41862,-0.11961 0.38871,0.0598 0.53822,0.8173 0.1794,0.95684 0.51828,1.08641 0.33888,0.1196 1.16615,-0.32891 0.69769,-0.36878 1.22594,-0.77743 0.53822,-0.40865 0.7276,-0.73756 0.19934,-0.39869 0.50832,-0.39869 0.2093,0 0.29901,0.16944 0.0897,0.16944 0.0498,0.36878 -0.0399,0.19934 -0.22924,0.31895 -0.0498,0.0299 -0.16944,0.10964 -0.1196,0.0698 -0.23921,0.1495 -2.50172,1.54489 -3.21935,1.54489 -0.32891,0 -0.59802,-0.24917 -0.25915,-0.23921 -0.44852,-1.04654 -0.13954,-0.60799 -0.24918,-0.60799 -0.0598,0 -0.31894,0.17941 -0.24918,0.16944 -0.51829,0.37874 -0.35881,0.29901 -0.8173,0.76747 -0.44851,0.45848 -0.85716,0.9369 -0.19934,0.24917 -0.34885,0.42858 -0.15947,0.16944 -0.19934,0.18937 -0.0797,0.0498 -0.16944,0.0399 -0.0997,-0.01 -0.13954,-0.0598 z"
     id="path18"
     style="fill:#000000" /></g></g></svg>
